<svg width="973" height="208" viewBox="0 0 973 208" fill="none" xmlns="http://www.w3.org/2000/svg">
<path d="M158.125 205H130.984V110.359H27.7656V205H0.765625V0.25H27.7656V88.2812H130.984V0.25H158.125V205ZM265.141 207.812C244.516 207.812 227.734 201.062 214.797 187.562C201.859 173.969 195.391 155.828 195.391 133.141V128.359C195.391 113.266 198.25 99.8125 203.969 88C209.781 76.0938 217.844 66.8125 228.156 60.1562C238.562 53.4062 249.812 50.0312 261.906 50.0312C281.688 50.0312 297.062 56.5469 308.031 69.5781C319 82.6094 324.484 101.266 324.484 125.547V136.375H221.406C221.781 151.375 226.141 163.516 234.484 172.797C242.922 181.984 253.609 186.578 266.547 186.578C275.734 186.578 283.516 184.703 289.891 180.953C296.266 177.203 301.844 172.234 306.625 166.047L322.516 178.422C309.766 198.016 290.641 207.812 265.141 207.812ZM261.906 71.4062C251.406 71.4062 242.594 75.25 235.469 82.9375C228.344 90.5312 223.938 101.219 222.25 115H298.469V113.031C297.719 99.8125 294.156 89.5938 287.781 82.375C281.406 75.0625 272.781 71.4062 261.906 71.4062ZM428.266 76.1875C424.328 75.5312 420.062 75.2031 415.469 75.2031C398.406 75.2031 386.828 82.4688 380.734 97V205H354.719V52.8438H380.031L380.453 70.4219C388.984 56.8281 401.078 50.0312 416.734 50.0312C421.797 50.0312 425.641 50.6875 428.266 52V76.1875ZM476.781 52.8438L477.484 69.7188C488.641 56.5938 503.688 50.0312 522.625 50.0312C543.906 50.0312 558.391 58.1875 566.078 74.5C571.141 67.1875 577.703 61.2812 585.766 56.7812C593.922 52.2812 603.531 50.0312 614.594 50.0312C647.969 50.0312 664.938 67.7031 665.5 103.047V205H639.484V104.594C639.484 93.7188 637 85.6094 632.031 80.2656C627.062 74.8281 618.719 72.1094 607 72.1094C597.344 72.1094 589.328 75.0156 582.953 80.8281C576.578 86.5469 572.875 94.2812 571.844 104.031V205H545.688V105.297C545.688 83.1719 534.859 72.1094 513.203 72.1094C496.141 72.1094 484.469 79.375 478.188 93.9062V205H452.172V52.8438H476.781ZM768.016 207.812C747.391 207.812 730.609 201.062 717.672 187.562C704.734 173.969 698.266 155.828 698.266 133.141V128.359C698.266 113.266 701.125 99.8125 706.844 88C712.656 76.0938 720.719 66.8125 731.031 60.1562C741.438 53.4062 752.688 50.0312 764.781 50.0312C784.562 50.0312 799.938 56.5469 810.906 69.5781C821.875 82.6094 827.359 101.266 827.359 125.547V136.375H724.281C724.656 151.375 729.016 163.516 737.359 172.797C745.797 181.984 756.484 186.578 769.422 186.578C778.609 186.578 786.391 184.703 792.766 180.953C799.141 177.203 804.719 172.234 809.5 166.047L825.391 178.422C812.641 198.016 793.516 207.812 768.016 207.812ZM764.781 71.4062C754.281 71.4062 745.469 75.25 738.344 82.9375C731.219 90.5312 726.812 101.219 725.125 115H801.344V113.031C800.594 99.8125 797.031 89.5938 790.656 82.375C784.281 75.0625 775.656 71.4062 764.781 71.4062ZM946.188 164.641C946.188 157.609 943.516 152.172 938.172 148.328C932.922 144.391 923.688 141.016 910.469 138.203C897.344 135.391 886.891 132.016 879.109 128.078C871.422 124.141 865.703 119.453 861.953 114.016C858.297 108.578 856.469 102.109 856.469 94.6094C856.469 82.1406 861.719 71.5938 872.219 62.9688C882.812 54.3438 896.312 50.0312 912.719 50.0312C929.969 50.0312 943.938 54.4844 954.625 63.3906C965.406 72.2969 970.797 83.6875 970.797 97.5625H944.641C944.641 90.4375 941.594 84.2969 935.5 79.1406C929.5 73.9844 921.906 71.4062 912.719 71.4062C903.25 71.4062 895.844 73.4688 890.5 77.5938C885.156 81.7188 882.484 87.1094 882.484 93.7656C882.484 100.047 884.969 104.781 889.938 107.969C894.906 111.156 903.859 114.203 916.797 117.109C929.828 120.016 940.375 123.484 948.438 127.516C956.5 131.547 962.453 136.422 966.297 142.141C970.234 147.766 972.203 154.656 972.203 162.812C972.203 176.406 966.766 187.328 955.891 195.578C945.016 203.734 930.906 207.812 913.562 207.812C901.375 207.812 890.594 205.656 881.219 201.344C871.844 197.031 864.484 191.031 859.141 183.344C853.891 175.562 851.266 167.172 851.266 158.172H877.281C877.75 166.891 881.219 173.828 887.688 178.984C894.25 184.047 902.875 186.578 913.562 186.578C923.406 186.578 931.281 184.609 937.188 180.672C943.188 176.641 946.188 171.297 946.188 164.641Z" fill="white"/>
</svg>
